<?xml version="1.0" encoding="utf-8"?>
<!-- Generator: Adobe Illustrator 16.0.0, SVG Export Plug-In . SVG Version: 6.00 Build 0)  -->
<!DOCTYPE svg PUBLIC "-//W3C//DTD SVG 1.1//EN" "http://www.w3.org/Graphics/SVG/1.1/DTD/svg11.dtd">
<svg version="1.1" id="Layer_1" xmlns="http://www.w3.org/2000/svg" xmlns:xlink="http://www.w3.org/1999/xlink" x="0px" y="0px"
	 width="38.16px" height="30px" viewBox="10 4.556 38.16 30" enable-background="new 10 4.556 38.16 30" xml:space="preserve">
<g>
	<path fill="#3D7DD8" d="M10,33.49c0.142-0.221,0.309-0.431,0.423-0.666c1.761-3.608,3.527-7.212,5.259-10.835
		c0.306-0.643,0.676-0.939,1.418-0.907c1.363,0.058,2.732-0.01,4.096,0.035c0.335,0.009,0.744,0.153,0.98,0.381
		c0.621,0.602,1.166,1.281,1.874,2.08c-0.424,0-0.701,0-0.978,0c-1.538,0-3.078,0.013-4.618-0.008
		c-0.541-0.008-0.871,0.19-1.106,0.682c-1.166,2.438-2.355,4.861-3.535,7.294c-0.041,0.081-0.065,0.172-0.124,0.321
		c10.278,0,20.489,0,30.768,0c-0.082-0.206-0.14-0.389-0.221-0.556c-1.126-2.321-2.271-4.631-3.372-6.959
		c-0.275-0.577-0.64-0.796-1.271-0.787c-1.778,0.033-3.56,0.013-5.511,0.013c0.759-0.843,1.379-1.571,2.056-2.244
		c0.179-0.175,0.544-0.217,0.823-0.225c1.416-0.02,2.833,0.015,4.247-0.02c0.617-0.018,0.937,0.232,1.193,0.771
		c1.763,3.662,3.549,7.313,5.334,10.965c0.113,0.236,0.28,0.445,0.424,0.667c0,0.197,0,0.397,0,0.594
		c-0.314,0.116-0.627,0.331-0.938,0.336c-12.096,0.014-24.189,0.014-36.283,0c-0.312-0.008-0.625-0.224-0.939-0.34
		C10,33.884,10,33.686,10,33.49z"/>
	<path fill="#3D7DD8" d="M37.71,13.823c-0.004,1.641-0.674,3.584-2.021,5.265c-1.04,1.292-2.239,2.466-3.23,3.795
		c-0.972,1.306-1.758,2.747-2.652,4.11c-0.186,0.281-0.487,0.685-0.733,0.681c-0.246,0-0.588-0.393-0.723-0.686
		c-0.835-1.858-2.038-3.452-3.367-4.971c-1.029-1.177-2.119-2.319-2.986-3.607c-3.428-5.096-0.87-12.052,4.938-13.58
		C32.4,3.393,37.791,7.627,37.71,13.823z M28.966,17.744c2.541,0.062,4.633-1.949,4.673-4.5c0.04-2.489-1.99-4.576-4.492-4.623
		c-2.485-0.046-4.569,1.965-4.64,4.478C24.437,15.58,26.451,17.68,28.966,17.744z"/>
</g>
</svg>
