<?xml version="1.0" encoding="utf-8"?>
<!-- Generator: Adobe Illustrator 16.0.0, SVG Export Plug-In . SVG Version: 6.00 Build 0)  -->
<!DOCTYPE svg PUBLIC "-//W3C//DTD SVG 1.0//EN" "http://www.w3.org/TR/2001/REC-SVG-20010904/DTD/svg10.dtd">
<svg version="1.0" id="Layer_1" xmlns="http://www.w3.org/2000/svg" xmlns:xlink="http://www.w3.org/1999/xlink" x="0px" y="0px"
	 width="50px" height="50px" viewBox="0 0 50 50" enable-background="new 0 0 50 50" xml:space="preserve">
<path fill-rule="evenodd" clip-rule="evenodd" fill="#3D7DD8" d="M41.829,17.384c-0.018,0.21-0.037,0.421-0.053,0.632
	c-0.235,2.997-1.189,5.747-2.902,8.215c-2.37,3.418-5.577,5.674-9.594,6.757c-0.704,0.189-1.435,0.284-2.154,0.417
	c-0.103,0.019-0.143,0.046-0.143,0.159c0.004,2.048,0.002,4.096,0.002,6.144c0,0.044,0.006,0.088,0.009,0.148
	c1.882,0,3.756,0,5.641,0c0,1.353,0,2.689,0,4.044c-1.879,0-3.757,0-5.65,0c0,2.028,0,4.038,0,6.059c-1.351,0-2.688,0-4.044,0
	c0-2.012,0-4.026,0-6.053c-1.892,0-3.766,0-5.652,0c0-1.35,0-2.686,0-4.044c1.875,0,3.751,0,5.647,0c0-0.076,0-0.129,0-0.184
	c0-2.027-0.001-4.055,0.003-6.083c0-0.14-0.035-0.181-0.177-0.201c-4.024-0.569-7.428-2.34-10.18-5.329
	c-2.112-2.294-3.468-4.988-4.083-8.047c-0.409-2.042-0.434-4.095-0.081-6.15C9.433,7.961,13.521,3.026,19.134,0.942
	c1.695-0.63,3.447-0.977,5.254-1.039c0.069-0.002,0.139-0.016,0.208-0.024c0.264,0,0.526,0,0.789,0
	c0.049,0.007,0.099,0.017,0.149,0.021c0.609,0.054,1.221,0.081,1.826,0.162c1.895,0.25,3.691,0.827,5.382,1.714
	c3.197,1.679,5.626,4.126,7.272,7.342c1.014,1.979,1.594,4.083,1.762,6.301c0.016,0.21,0.036,0.421,0.053,0.632
	C41.829,16.495,41.829,16.94,41.829,17.384z M12.219,16.704c0,7.044,5.687,12.756,12.704,12.796
	c7.044,0.04,12.861-5.651,12.863-12.792C37.788,9.661,32.074,3.95,25.01,3.937C17.957,3.924,12.217,9.652,12.219,16.704z"/>
</svg>
