<?xml version="1.0" encoding="utf-8"?>
<!-- Generator: Adobe Illustrator 16.0.0, SVG Export Plug-In . SVG Version: 6.00 Build 0)  -->
<!DOCTYPE svg PUBLIC "-//W3C//DTD SVG 1.1//EN" "http://www.w3.org/Graphics/SVG/1.1/DTD/svg11.dtd">
<svg version="1.1" id="Layer_1" xmlns="http://www.w3.org/2000/svg" xmlns:xlink="http://www.w3.org/1999/xlink" x="0px" y="0px"
	 width="30px" height="30px" viewBox="213.461 235 30 30" enable-background="new 213.461 235 30 30" xml:space="preserve">
<path fill="#284EB9" d="M243.399,260.881c0,2.242-1.818,4.059-4.062,4.059h-21.817c-2.242,0-4.06-1.816-4.06-4.059V239.06
	c0-2.242,1.817-4.06,4.06-4.06h21.817c2.243,0,4.062,1.818,4.062,4.06V260.881z"/>
<g>
	<path fill="#FFFFFF" d="M223.554,258.854c-0.052,0-0.103-0.014-0.149-0.039c-0.098-0.054-0.156-0.155-0.156-0.267v-2.385h-1.278
		c-1.501,0-2.723-1.242-2.723-2.771c0-0.167,0.137-0.306,0.305-0.306c0.169,0,0.306,0.139,0.306,0.306
		c0,1.191,0.947,2.161,2.112,2.161h1.583c0.169,0,0.305,0.136,0.305,0.305v2.145l3.942-2.405c0.049-0.028,0.103-0.044,0.159-0.044
		h6.846c1.17,0,2.195-1.039,2.195-2.221v-1.855h-2.09c-0.082,0-0.16-0.033-0.217-0.09c-0.059-0.059-0.088-0.136-0.088-0.218
		l0.014-2.416l-1.549-1.519l-1.357,1.336c-0.088,0.087-0.219,0.112-0.332,0.064c-0.113-0.046-0.189-0.158-0.189-0.282v-4.517h-2.648
		v7.336c0,0.169-0.137,0.306-0.305,0.306h-1.834c-0.169,0-0.306-0.137-0.306-0.306v-1.426h-0.814c-0.169,0-0.306-0.138-0.306-0.305
		v-3.668h-1.629v1.528c0,0.169-0.136,0.305-0.306,0.305h-1.528v3.566c0,0.169-0.136,0.306-0.306,0.306h-1.629
		c-0.169,0-0.307-0.137-0.307-0.306v-7.376c0-1.52,1.185-2.71,2.696-2.71h12.836c1.547,0,2.807,1.216,2.807,2.71v4.116
		c0,0.169-0.137,0.306-0.305,0.306c-0.17,0-0.307-0.136-0.307-0.306v-4.116c0-1.157-0.984-2.099-2.195-2.099h-12.836
		c-1.168,0-2.084,0.921-2.084,2.099v7.07h1.02V247.3c0-0.168,0.136-0.306,0.305-0.306h1.529v-1.528c0-0.168,0.136-0.305,0.305-0.305
		h2.241c0.168,0,0.306,0.137,0.306,0.305v3.668h0.814c0.169,0,0.307,0.137,0.307,0.306v1.426h1.223v-7.336
		c0-0.169,0.137-0.305,0.305-0.305h3.26c0.17,0,0.305,0.136,0.305,0.305v4.094l1.053-1.034c0.119-0.119,0.311-0.119,0.428,0
		l1.855,1.82c0.061,0.058,0.094,0.137,0.092,0.219l-0.014,2.237h2.09c0.168,0,0.305,0.139,0.305,0.306v2.161
		c0,1.534-1.285,2.83-2.807,2.83h-6.76l-4.333,2.646C223.664,258.838,223.61,258.854,223.554,258.854z"/>
</g>
</svg>
