<?xml version="1.0" encoding="utf-8"?>
<!-- Generator: Adobe Illustrator 16.0.0, SVG Export Plug-In . SVG Version: 6.00 Build 0)  -->
<!DOCTYPE svg PUBLIC "-//W3C//DTD SVG 1.0//EN" "http://www.w3.org/TR/2001/REC-SVG-20010904/DTD/svg10.dtd">
<svg version="1.0" id="Layer_1" xmlns="http://www.w3.org/2000/svg" xmlns:xlink="http://www.w3.org/1999/xlink" x="0px" y="0px"
	 width="50px" height="50px" viewBox="0 0 50 50" enable-background="new 0 0 50 50" xml:space="preserve">
<path fill-rule="evenodd" clip-rule="evenodd" fill="#3D7DD8" d="M50,15.235c-1.32-0.008-2.641-0.017-3.961-0.023
	c-0.748-0.003-0.748,0-0.748-0.744c0-1.959,0-3.918,0-5.878c0-0.138,0-0.275,0-0.414c-0.039-0.031-0.078-0.063-0.116-0.094
	c-3.27,3.337-6.537,6.674-9.823,10.029c4.016,5.471,5.221,11.533,3.206,18.117c-1.387,4.533-4.163,8.088-8.155,10.646
	c-8.457,5.416-19.469,3.607-25.792-3.978c-6.295-7.548-6.042-18.514,0.441-25.786c6.702-7.516,18.435-8.965,26.854-2.414
	c3.316-3.317,6.63-6.63,9.951-9.951c-2.312,0-4.646,0-7.023,0c0-1.604,0-3.175,0-4.746C39.89,0,44.946,0,50,0
	C50,5.078,50,10.156,50,15.235z M4.734,30.216c0.016,2.882,0.699,5.6,2.298,8.002c3.494,5.252,8.431,7.65,14.708,6.91
	c4.766-0.562,8.415-3.059,10.91-7.147c1.97-3.225,2.572-6.754,1.886-10.463c-0.523-2.825-1.682-5.358-3.802-7.379
	c-0.636-0.607-1.198-1.312-1.896-1.833c-3.777-2.818-8-3.721-12.585-2.642C9.509,17.249,4.696,23.372,4.734,30.216z"/>
</svg>
