<?xml version="1.0" encoding="utf-8"?>
<!-- Generator: Adobe Illustrator 16.0.0, SVG Export Plug-In . SVG Version: 6.00 Build 0)  -->
<!DOCTYPE svg PUBLIC "-//W3C//DTD SVG 1.1//EN" "http://www.w3.org/Graphics/SVG/1.1/DTD/svg11.dtd">
<svg version="1.1" id="Layer_1" xmlns="http://www.w3.org/2000/svg" xmlns:xlink="http://www.w3.org/1999/xlink" x="0px" y="0px"
	 width="26.582px" height="30px" viewBox="13.418 13.217 26.582 30" enable-background="new 13.418 13.217 26.582 30"
	 xml:space="preserve">
<g>
	<path fill="#3D7DD8" d="M32.703,21.076l0.39-7.376c0.048-0.29-0.151-0.544-0.444-0.567H20.844
		c-0.292,0.023-0.493,0.278-0.445,0.567l0.39,7.376H32.703z"/>
	<path fill="#3D7DD8" d="M35.137,21.814H18.355c-0.291-0.018-0.585,0.076-0.653,0.209c-0.069,0.133-0.011,0.5,0.28,0.518h2.935
		c-0.039,1.019-0.153,2.121-0.057,3.254c-0.474,0.318-0.37,0.915-0.254,1.482c0.123,0.607,0.278,1.214,0.492,1.794
		c0.107,0.287,0.379,0.514,0.57,0.771c0.066,0.091,0.142,0.19,0.166,0.296c0.103,0.458,0.145,0.934,0.291,1.377
		c0.23,0.703,0.531,1.384,0.79,2.078c0.103,0.277,0.233,0.565,0.243,0.852c0.027,0.83-0.003,1.659-0.005,2.486
		c0,0.365-0.193,0.576-0.496,0.747c-0.843,0.473-1.782,0.574-2.708,0.717c-1.335,0.205-2.617,0.566-3.808,1.217
		c-1.288,0.704-2.347,1.605-2.724,3.106c0,0.166,0,0.332,0,0.498c4.774,0,9.548,0,14.322,0l4.965-4.965
		c-0.656-0.143-1.299-0.369-1.941-0.578c-0.327-0.107-0.501-0.371-0.5-0.735c0.002-0.927-0.004-1.851,0.004-2.776
		c0.002-0.118,0.042-0.251,0.107-0.348c0.69-1.04,0.967-2.219,1.154-3.427c0.04-0.262,0.102-0.469,0.367-0.635
		c0.198-0.122,0.344-0.398,0.421-0.636c0.195-0.603,0.374-1.215,0.497-1.837c0.109-0.551,0.215-1.137-0.287-1.488
		c0.091-0.886-0.032-2.227-0.051-3.25h3.033c0.291-0.018,0.348-0.385,0.279-0.518C35.722,21.89,35.428,21.796,35.137,21.814z"/>
</g>
<path fill="#3D7DD8" d="M37.131,39.533c-0.394-0.21-0.799-0.378-1.211-0.521l-4.205,4.205c2.762,0,5.523,0,8.285,0
	c0-0.166,0-0.332,0-0.498C39.602,41.154,38.474,40.254,37.131,39.533z"/>
</svg>
