<?xml version="1.0" encoding="utf-8"?>
<!-- Generator: Adobe Illustrator 16.0.0, SVG Export Plug-In . SVG Version: 6.00 Build 0)  -->
<!DOCTYPE svg PUBLIC "-//W3C//DTD SVG 1.0//EN" "http://www.w3.org/TR/2001/REC-SVG-20010904/DTD/svg10.dtd">
<svg version="1.0" id="Layer_1" xmlns="http://www.w3.org/2000/svg" xmlns:xlink="http://www.w3.org/1999/xlink" x="0px" y="0px"
	 width="50px" height="50px" viewBox="0 0 50 50" enable-background="new 0 0 50 50" xml:space="preserve">
<path fill="#3D7DD8" d="M49.863,49.067c0,0.31,0,0.623,0,0.933C33.243,50,16.62,50,0,50c0-0.311,0-0.623,0-0.933
	c0.707-2.817,2.694-4.509,5.109-5.828c2.234-1.22,4.639-1.898,7.143-2.282c1.737-0.268,3.498-0.458,5.079-1.345
	c0.567-0.32,0.93-0.717,0.93-1.401c0.003-1.553,0.061-3.11,0.01-4.664c-0.019-0.537-0.263-1.078-0.456-1.598
	c-0.486-1.303-1.051-2.579-1.482-3.898c-0.274-0.831-0.353-1.724-0.545-2.583c-0.046-0.198-0.187-0.384-0.312-0.555
	c-0.359-0.482-0.869-0.906-1.07-1.445c-0.401-1.088-0.693-2.227-0.923-3.367c-0.216-1.064-0.412-2.183,0.477-2.78
	c-0.208-2.467-0.568-4.76-0.553-7.051c0.025-4.008,1.974-6.993,5.55-8.765c1.365-0.675,2.939-0.924,4.417-1.368
	c1.039,0,2.079,0,3.117,0c0.223,0.054,0.444,0.122,0.671,0.156c6.135,0.894,9.719,5.662,9.306,10.912
	c-0.157,2.007-0.406,4.007-0.623,6.109c0.944,0.657,0.746,1.757,0.541,2.791c-0.23,1.166-0.565,2.316-0.933,3.446
	c-0.146,0.445-0.418,0.962-0.791,1.192c-0.497,0.312-0.611,0.701-0.688,1.191c-0.352,2.265-0.868,4.477-2.164,6.428
	c-0.123,0.183-0.199,0.432-0.202,0.652c-0.015,1.737-0.003,3.471-0.007,5.208c-0.003,0.684,0.324,1.178,0.938,1.379
	c1.346,0.439,2.692,0.931,4.078,1.181c2.712,0.487,5.397,0.989,7.864,2.309C47,44.441,49.115,46.132,49.863,49.067z"/>
</svg>
