<?xml version="1.0" encoding="utf-8"?>
<!-- Generator: Adobe Illustrator 16.0.0, SVG Export Plug-In . SVG Version: 6.00 Build 0)  -->
<!DOCTYPE svg PUBLIC "-//W3C//DTD SVG 1.1//EN" "http://www.w3.org/Graphics/SVG/1.1/DTD/svg11.dtd">
<svg version="1.1" id="Layer_1" xmlns="http://www.w3.org/2000/svg" xmlns:xlink="http://www.w3.org/1999/xlink" x="0px" y="0px"
	 width="30px" height="30px" viewBox="10 10 30 30" enable-background="new 10 10 30 30" xml:space="preserve">
<path fill="#3D7DD8" d="M34.505,39.641c0,0.119,0,0.24,0,0.359c-6.383,0-12.765,0-19.147,0c0-0.119,0-0.24,0-0.359
	c0.271-1.08,1.034-1.73,1.961-2.236c0.858-0.469,1.781-0.73,2.743-0.877c0.667-0.104,1.343-0.176,1.95-0.518
	c0.218-0.121,0.357-0.275,0.357-0.537c0.001-0.596,0.023-1.193,0.004-1.791c-0.007-0.207-0.101-0.414-0.175-0.613
	c-0.187-0.5-0.404-0.99-0.569-1.496c-0.105-0.32-0.135-0.664-0.209-0.992c-0.018-0.078-0.072-0.148-0.12-0.213
	c-0.138-0.186-0.334-0.35-0.411-0.557c-0.154-0.418-0.266-0.855-0.354-1.293c-0.083-0.408-0.158-0.838,0.183-1.066
	c-0.08-0.947-0.218-1.828-0.212-2.708c0.01-1.539,0.758-2.686,2.131-3.366c0.524-0.258,1.128-0.354,1.696-0.525
	c0.398,0,0.798,0,1.196,0c0.086,0.021,0.171,0.047,0.258,0.061c2.357,0.344,3.733,2.174,3.574,4.19
	c-0.061,0.77-0.156,1.538-0.239,2.344c0.362,0.254,0.286,0.676,0.208,1.072c-0.09,0.447-0.217,0.889-0.359,1.324
	c-0.056,0.17-0.16,0.369-0.303,0.457c-0.191,0.119-0.234,0.27-0.265,0.459c-0.136,0.869-0.333,1.719-0.831,2.467
	c-0.047,0.07-0.076,0.166-0.076,0.252c-0.007,0.666-0.002,1.332-0.004,2c-0.002,0.262,0.123,0.451,0.36,0.527
	c0.517,0.168,1.034,0.357,1.566,0.453c1.04,0.188,2.071,0.381,3.019,0.887C33.404,37.865,34.217,38.514,34.505,39.641z"/>
</svg>
