<?xml version="1.0" encoding="utf-8"?>
<!-- Generator: Adobe Illustrator 16.0.0, SVG Export Plug-In . SVG Version: 6.00 Build 0)  -->
<!DOCTYPE svg PUBLIC "-//W3C//DTD SVG 1.1//EN" "http://www.w3.org/Graphics/SVG/1.1/DTD/svg11.dtd">
<svg version="1.1" id="Layer_1" xmlns="http://www.w3.org/2000/svg" xmlns:xlink="http://www.w3.org/1999/xlink" x="0px" y="0px"
	 width="30px" height="30px" viewBox="10 10 30 30" enable-background="new 10 10 30 30" xml:space="preserve">
<path fill="#3D7DD8" d="M36.898,39.552c0,0.149,0,0.3,0,0.448c-7.979,0-15.957,0-23.934,0c0-0.148,0-0.299,0-0.448
	c0.339-1.352,1.293-2.164,2.452-2.797c1.072-0.586,2.227-0.911,3.429-1.095c0.834-0.129,1.679-0.221,2.438-0.646
	c0.272-0.153,0.446-0.345,0.446-0.673c0.002-0.745,0.029-1.492,0.005-2.238c-0.009-0.258-0.126-0.519-0.219-0.767
	c-0.233-0.625-0.505-1.238-0.711-1.871c-0.132-0.398-0.169-0.828-0.262-1.24c-0.022-0.096-0.09-0.184-0.149-0.266
	c-0.172-0.232-0.417-0.436-0.514-0.694c-0.193-0.522-0.333-1.069-0.443-1.616c-0.104-0.511-0.198-1.048,0.229-1.334
	c-0.1-1.185-0.272-2.285-0.266-3.385c0.012-1.924,0.948-3.357,2.664-4.207c0.655-0.324,1.411-0.443,2.121-0.657
	c0.498,0,0.998,0,1.496,0c0.107,0.026,0.213,0.059,0.322,0.075c2.945,0.429,4.666,2.717,4.467,5.238
	c-0.076,0.963-0.195,1.923-0.299,2.932c0.453,0.316,0.357,0.844,0.26,1.34c-0.111,0.56-0.271,1.111-0.448,1.654
	c-0.07,0.213-0.2,0.461-0.38,0.572c-0.238,0.149-0.293,0.336-0.33,0.572c-0.169,1.087-0.416,2.148-1.039,3.084
	c-0.059,0.089-0.095,0.207-0.096,0.314c-0.008,0.833-0.002,1.665-0.004,2.5c-0.002,0.328,0.154,0.564,0.45,0.661
	c0.646,0.21,1.292,0.446,1.958,0.566c1.301,0.234,2.59,0.476,3.773,1.108C35.523,37.332,36.539,38.143,36.898,39.552z"/>
</svg>
