<?xml version="1.0" encoding="utf-8"?>
<!-- Generator: Adobe Illustrator 16.0.0, SVG Export Plug-In . SVG Version: 6.00 Build 0)  -->
<!DOCTYPE svg PUBLIC "-//W3C//DTD SVG 1.1//EN" "http://www.w3.org/Graphics/SVG/1.1/DTD/svg11.dtd">
<svg version="1.1" id="Layer_1" xmlns="http://www.w3.org/2000/svg" xmlns:xlink="http://www.w3.org/1999/xlink" x="0px" y="0px"
	 width="57.285px" height="30px" viewBox="18.541 10 57.285 30" enable-background="new 18.541 10 57.285 30" xml:space="preserve">
<path fill="#3D7DD8" d="M62.276,39.567c0,0.188,0,0.379,0,0.567c-10.089,0-20.18,0-30.269,0c0-0.188,0-0.379,0-0.567
	c0.429-1.709,1.635-2.736,3.101-3.537c1.356-0.74,2.816-1.153,4.337-1.385c1.055-0.163,2.123-0.279,3.083-0.817
	c0.344-0.194,0.564-0.436,0.564-0.85c0.002-0.943,0.037-1.889,0.006-2.832c-0.012-0.326-0.159-0.654-0.276-0.97
	c-0.295-0.791-0.638-1.565-0.899-2.366c-0.167-0.505-0.215-1.047-0.331-1.568c-0.028-0.12-0.113-0.233-0.189-0.337
	c-0.218-0.292-0.527-0.55-0.649-0.877c-0.244-0.66-0.421-1.352-0.561-2.043c-0.131-0.646-0.25-1.325,0.289-1.688
	c-0.126-1.498-0.345-2.889-0.335-4.28c0.015-2.433,1.198-4.245,3.369-5.321c0.828-0.41,1.784-0.561,2.681-0.83
	c0.631,0,1.263,0,1.893,0c0.135,0.033,0.27,0.074,0.407,0.095c3.725,0.542,5.899,3.437,5.648,6.624
	c-0.096,1.218-0.246,2.432-0.377,3.708c0.572,0.399,0.452,1.066,0.328,1.694c-0.139,0.708-0.344,1.406-0.566,2.091
	c-0.09,0.271-0.254,0.584-0.48,0.724c-0.302,0.189-0.371,0.425-0.418,0.723c-0.214,1.375-0.527,2.718-1.312,3.901
	c-0.075,0.111-0.121,0.263-0.124,0.396c-0.009,1.054-0.001,2.106-0.003,3.162c-0.003,0.415,0.195,0.715,0.568,0.837
	c0.817,0.266,1.635,0.564,2.477,0.716c1.646,0.297,3.275,0.602,4.772,1.401C60.539,36.76,61.822,37.786,62.276,39.567z"/>
<path fill="#3D7DD8" d="M73.176,36.734c-1.214-0.65-2.534-0.897-3.869-1.138c-0.684-0.122-1.345-0.364-2.008-0.58
	c-0.302-0.099-0.463-0.342-0.461-0.679c0.002-0.855-0.005-1.708,0.002-2.564c0.003-0.107,0.039-0.23,0.101-0.32
	c0.638-0.96,0.892-2.049,1.065-3.164c0.038-0.24,0.094-0.432,0.339-0.586c0.184-0.113,0.316-0.367,0.389-0.587
	c0.181-0.557,0.347-1.122,0.46-1.696c0.101-0.509,0.197-1.05-0.267-1.374c0.107-1.035,0.229-2.019,0.308-3.007
	c0.203-2.584-1.562-4.931-4.58-5.37c-0.112-0.018-0.221-0.051-0.331-0.077c-0.511,0-1.022,0-1.534,0
	c-0.728,0.218-1.502,0.341-2.174,0.673c-1.76,0.872-2.719,2.341-2.731,4.313c-0.008,1.127,0.169,2.256,0.272,3.47
	c-0.438,0.294-0.342,0.845-0.235,1.368c0.113,0.562,0.257,1.122,0.455,1.656c0.099,0.267,0.35,0.475,0.525,0.712
	c0.062,0.085,0.132,0.176,0.153,0.273c0.095,0.422,0.135,0.862,0.269,1.271c0.214,0.648,0.491,1.276,0.729,1.919
	c0.095,0.256,0.215,0.521,0.224,0.785c0.024,0.767-0.003,1.532-0.005,2.296c0,0.337-0.179,0.532-0.457,0.689
	c-0.093,0.053-0.191,0.086-0.287,0.13c0.26,0.13,0.517,0.271,0.77,0.429c1.648,1.04,3.031,2.342,3.564,4.555
	c3.988,0,7.977,0,11.965,0c0-0.153,0-0.307,0-0.459C75.458,38.23,74.416,37.398,73.176,36.734z"/>
<path fill="#3D7DD8" d="M33.887,35.696c0.329-0.211,0.664-0.396,1.003-0.57c-0.111-0.036-0.223-0.073-0.334-0.109
	c-0.302-0.099-0.464-0.342-0.461-0.679c0.002-0.855-0.005-1.708,0.002-2.564c0.003-0.107,0.04-0.23,0.101-0.32
	c0.638-0.96,0.892-2.049,1.065-3.164c0.037-0.24,0.094-0.432,0.339-0.586c0.183-0.113,0.316-0.367,0.389-0.587
	c0.181-0.557,0.346-1.122,0.46-1.696c0.101-0.509,0.197-1.05-0.267-1.374c0.107-1.035,0.229-2.019,0.307-3.007
	c0.204-2.584-1.561-4.931-4.58-5.37c-0.111-0.018-0.22-0.051-0.33-0.077c-0.511,0-1.022,0-1.534,0
	c-0.728,0.218-1.503,0.341-2.174,0.673c-1.76,0.872-2.719,2.341-2.731,4.313c-0.008,1.127,0.169,2.256,0.271,3.47
	c-0.438,0.294-0.341,0.845-0.234,1.368c0.113,0.562,0.257,1.122,0.455,1.656c0.098,0.267,0.35,0.475,0.525,0.712
	c0.062,0.085,0.132,0.176,0.154,0.273c0.094,0.422,0.133,0.862,0.268,1.271c0.213,0.648,0.49,1.276,0.729,1.919
	c0.095,0.256,0.215,0.521,0.224,0.785c0.025,0.767-0.003,1.532-0.005,2.296c0,0.337-0.179,0.532-0.457,0.689
	c-0.778,0.437-1.646,0.53-2.5,0.662c-1.232,0.189-2.416,0.522-3.516,1.124c-1.188,0.648-2.166,1.481-2.515,2.868
	c0,0.152,0,0.307,0,0.46c3.987,0,7.976,0,11.963,0C31.009,38.013,32.308,36.712,33.887,35.696z"/>
</svg>
